<?xml version="1.0" encoding="utf-8"?>
<!-- Generator: Adobe Illustrator 18.1.1, SVG Export Plug-In . SVG Version: 6.00 Build 0)  -->
<svg version="1.1" id="Isolation_Mode" xmlns="http://www.w3.org/2000/svg" xmlns:xlink="http://www.w3.org/1999/xlink" x="0px"
	 y="0px" viewBox="941.8 942 38.1 38" enable-background="new 941.8 942 38.1 38" xml:space="preserve">
<path fill="#EE3741" d="M973.1,968.8c-1.4-1.6-0.7-2.6-0.3-3.1c0.1-0.1,0.1-0.1,0.1-0.2c2.9-5.7,2.1-12.5-2.1-17.3
	c-3.7-4.2-9.3-6.1-14.7-5.1c-2.6,0.5-5.1,1.7-7.1,3.5c-3.1,2.7-5,6.5-5.2,10.6c-0.3,4.1,1.1,8.1,3.8,11.3c3.7,4.2,9.3,6.1,14.7,5
	c0.7-0.1,1.4-0.3,2-0.5c0.1,0,0.2-0.1,0.3-0.1c0.2-0.1,0.5-0.3,0.9-0.4c0.8-0.2,1.5,0.2,2.2,1c1.3,1.5,4,4.6,4,4.6
	c0.8,1,2.2,1.4,3.4,1.2c0.6-0.1,1.2-0.4,1.6-0.8c0.7-0.6,1.1-1.5,1.2-2.4c0.1-1-0.3-1.9-0.9-2.6
	C976.9,973.1,974.4,970.3,973.1,968.8 M961.4,969.4c-6.1,1.2-12.1-2.8-13.3-8.9c-1.2-6.1,2.8-12.1,8.9-13.3
	c6.1-1.2,12.1,2.8,13.3,8.9C971.5,962.2,967.5,968.2,961.4,969.4"/>
</svg>
