<?xml version="1.0" encoding="utf-8"?>
<!-- Generator: Adobe Illustrator 18.1.1, SVG Export Plug-In . SVG Version: 6.00 Build 0)  -->
<svg version="1.1" id="Isolation_Mode" xmlns="http://www.w3.org/2000/svg" xmlns:xlink="http://www.w3.org/1999/xlink" x="0px"
	 y="0px" viewBox="0 0 612 792" enable-background="new 0 0 612 792" xml:space="preserve">
<g>
	<circle fill="#FFFFFF" cx="206.9" cy="574.1" r="43.4"/>
	<circle fill="#FFFFFF" cx="478.4" cy="574.1" r="43.4"/>
	<path fill="#FFFFFF" d="M586,244.8c-6.4-8-14.5-11.2-24.1-11.2H144.3l-17.7-67.5c-3.2-12.9-16.1-22.5-28.9-22.5H49.5
		c-16.1,0-30.5,12.9-30.5,30.5c0,16.1,12.9,30.5,30.5,30.5h25.7L149.1,481c3.2,12.9,16.1,22.5,28.9,22.5h1.6c1.6,0,3.2,0,6.4,0
		h326.1c14.5,0,25.7-9.6,28.9-22.5l51.4-208.8C594,260.9,592.4,251.3,586,244.8z M488,442.4H200.5l-40.2-147.8h363L488,442.4z"/>
</g>
</svg>
