<?xml version="1.0" encoding="utf-8"?>
<!-- Generator: Adobe Illustrator 18.1.1, SVG Export Plug-In . SVG Version: 6.00 Build 0)  -->
<svg version="1.1" id="Isolation_Mode" xmlns="http://www.w3.org/2000/svg" xmlns:xlink="http://www.w3.org/1999/xlink" x="0px"
	 y="0px" viewBox="941.8 942 38.1 38" enable-background="new 941.8 942 38.1 38" xml:space="preserve">
<g>
	<path fill="#EE3741" d="M976.7,946.5H945c-0.7,0-1.3,0.6-1.3,1.3v1.8c0,0.7,0.6,1.3,1.3,1.3h31.7c0.7,0,1.3-0.6,1.3-1.3v-1.8
		C978,947,977.4,946.5,976.7,946.5z"/>
	<path fill="#EE3741" d="M976.7,955.8H945c-0.7,0-1.3,0.6-1.3,1.3v1.8c0,0.7,0.6,1.3,1.3,1.3h31.7c0.7,0,1.3-0.6,1.3-1.3v-1.8
		C978,956.4,977.4,955.8,976.7,955.8z"/>
	<g enable-background="new    ">
		<path fill="#EE3741" d="M945,967.3h2l2.2,6.3h0l2.2-6.3h2v8.1H952v-6.2h0l-2.2,6.2h-1.2l-2.2-6.2h0v6.2H945V967.3z"/>
		<path fill="#EE3741" d="M955,967.3h5.8v1.2h-4.4v2.1h4.1v1.2h-4.1v2.4h4.5v1.2H955V967.3z"/>
		<path fill="#EE3741" d="M962.1,967.3h1.5l3.7,5.9h0v-5.9h1.3v8.1h-1.5l-3.7-5.9h0v5.9h-1.3V967.3z"/>
		<path fill="#EE3741" d="M970.2,967.3h1.4v4.7c0,0.3,0,0.5,0,0.8c0,0.3,0.1,0.5,0.2,0.8s0.3,0.4,0.6,0.5c0.3,0.1,0.6,0.2,1.1,0.2
			c0.5,0,0.8-0.1,1.1-0.2c0.3-0.1,0.4-0.3,0.6-0.5s0.2-0.5,0.2-0.8c0-0.3,0-0.6,0-0.8v-4.7h1.4v5.2c0,0.5-0.1,1-0.2,1.4
			c-0.2,0.4-0.4,0.7-0.7,1s-0.6,0.5-1,0.6c-0.4,0.1-0.9,0.2-1.4,0.2s-0.9-0.1-1.4-0.2c-0.4-0.1-0.8-0.3-1-0.6s-0.5-0.6-0.7-1
			c-0.2-0.4-0.2-0.8-0.2-1.4V967.3z"/>
	</g>
</g>
</svg>
